HIERARCHY
ROOT Hips
{
  OFFSET 13.6774 106.653 -34.4427
  CHANNELS 6 Xposition Yposition Zposition Zrotation Xrotation Yrotation
  JOINT ToSpine
  {
    OFFSET -2.69724 7.43032 -0.144315
    CHANNELS 3 Zrotation Xrotation Yrotation
    JOINT Spine
    {
      OFFSET -0.0310711 10.7595 1.96963
      CHANNELS 3 Zrotation Xrotation Yrotation
      JOINT Spine1
      {
        OFFSET 19.9056 3.91189 0.764692
        CHANNELS 3 Zrotation Xrotation Yrotation
        JOINT Neck
        {
          OFFSET 25.9749 7.03908 -0.130764
          CHANNELS 3 Zrotation Xrotation Yrotation
          JOINT Head
          {
            OFFSET 9.52751 0.295786 -0.907742
            CHANNELS 3 Zrotation Xrotation Yrotation
            End Site
            {
              OFFSET 16.4037 0.713936 2.7358
            }
          }
        }
        JOINT LeftShoulder
        {
          OFFSET 17.7449 4.33886 11.7777
          CHANNELS 3 Zrotation Xrotation Yrotation
          JOINT LeftArm
          {
            OFFSET 0.911315 1.27913 9.80584
            CHANNELS 3 Zrotation Xrotation Yrotation
            JOINT LeftForeArm
            {
              OFFSET 28.6126 1.18197 -3.53199
              CHANNELS 3 Zrotation Xrotation Yrotation
              JOINT LeftHand
              {
                OFFSET 27.5088 0.0218783 0.327423
                CHANNELS 3 Zrotation Xrotation Yrotation
                End Site
                {
                  OFFSET 18.6038 -0.000155887 0.382096
                }
              }
            }
          }
        }
        JOINT RightShoulder
        {
          OFFSET 17.1009 2.89543 -12.2328
          CHANNELS 3 Zrotation Xrotation Yrotation
          JOINT RightArm
          {
            OFFSET 1.4228 0.178766 -10.211
            CHANNELS 3 Zrotation Xrotation Yrotation
            JOINT RightForeArm
            {
              OFFSET 28.733 1.87905 2.64907
              CHANNELS 3 Zrotation Xrotation Yrotation
              JOINT RightHand
              {
                OFFSET 27.4588 0.290562 -0.101845
                CHANNELS 3 Zrotation Xrotation Yrotation
                End Site
                {
                  OFFSET 17.8396 -0.255518 -0.000602873
                }
              }
            }
          }
        }
      }
    }
  }
  JOINT LeftUpLeg
  {
    OFFSET -5.61296 -2.22332 -10.2353
    CHANNELS 3 Zrotation Xrotation Yrotation
    JOINT LeftLeg
    {
      OFFSET 2.56703 -44.7417 -7.93097
      CHANNELS 3 Zrotation Xrotation Yrotation
      JOINT LeftFoot
      {
        OFFSET 3.16933 -46.5642 -3.96578
        CHANNELS 3 Zrotation Xrotation Yrotation
        JOINT LeftToeBase
        {
          OFFSET 0.346054 -6.02161 12.8035
          CHANNELS 3 Zrotation Xrotation Yrotation
          End Site
          {
            OFFSET 0.134235 -1.35082 5.13018
          }
        }
      }
    }
  }
  JOINT RightUpLeg
  {
    OFFSET -5.7928 -1.72406 10.6446
    CHANNELS 3 Zrotation Xrotation Yrotation
    JOINT RightLeg
    {
      OFFSET -2.57161 -44.7178 -7.85259
      CHANNELS 3 Zrotation Xrotation Yrotation
      JOINT RightFoot
      {
        OFFSET -3.10148 -46.5936 -4.03391
        CHANNELS 3 Zrotation Xrotation Yrotation
        JOINT RightToeBase
        {
          OFFSET -0.0828122 -6.13587 12.8035
          CHANNELS 3 Zrotation Xrotation Yrotation
          End Site
          {
            OFFSET -0.131328 -1.35082 5.13018
          }
        }
      }
    }
  }
}
MOTION
Frames: 7
Frame Time: 0.03333333333333333
0.0000 93.1000 0.0000 63.1473 49.5767 26.1446 -71.1337 -0.0355 87.9198 135.3178 62.7208 -44.8425 10.7067 20.1021 -0.8980 -159.8447 2.2809 -179.4887 -141.9889 34.1067 159.0437 1.7905 -3.8010 -30.6720 -78.5441 36.1038 -111.0373 1.9297 7.6193 -19.1050 15.2489 -0.8988 -5.7610 -0.4315 -0.1401 27.2953 -77.9801 -53.0251 89.2147 16.1707 -15.2513 42.3993 6.9539 -0.1604 1.0136 -24.3251 -0.4885 79.2684 -163.7240 73.1654 156.5899 5.4132 7.0214 -1.2644 -6.9920 -22.9613 14.9698 -28.3709 4.4400 75.2388 5.7728 65.9303 0.6742 -7.6688 -6.8520 0.8987 10.0301 -14.8470 -21.2398 
0.0000 93.1000 0.0000 61.2866 50.4362 27.1357 -71.1449 -0.0352 87.9061 135.9281 60.9268 -47.6720 8.9517 19.2233 -0.2530 -158.9180 -1.1576 -178.1059 -142.1070 30.2671 157.4604 1.6937 -3.8534 -30.7835 -81.0683 34.2712 -114.1458 6.1943 6.6992 -29.3393 15.9340 -1.0570 -6.5602 -0.5790 0.1465 27.5226 -72.4321 -54.9991 90.8171 12.5159 -12.2964 39.0073 5.6290 -0.1362 0.3215 -30.4541 -0.6098 78.3390 -159.6371 76.4497 151.9994 6.0510 7.3656 -1.2119 -7.2241 -23.8392 13.1930 -23.1021 2.1315 77.0361 3.8383 58.2901 0.6574 -7.1352 -5.1507 0.2784 3.9706 8.0752 -17.0898 
0.0000 93.1000 0.0000 58.0567 49.7041 27.8600 -71.1208 -0.1363 87.9528 135.8097 60.1573 -48.7341 7.2788 19.1109 -1.8130 -160.4215 -5.1525 -176.1047 -142.7252 26.0347 156.9856 1.9611 -3.9376 -30.1412 -85.4469 32.1563 -114.0290 11.4014 10.0689 -42.6298 16.1622 -1.8890 -8.4084 -0.9202 0.5898 27.2244 -67.4679 -58.3055 92.8037 7.6320 -7.1835 37.3976 5.0228 -0.4422 1.5506 -34.5109 -1.6637 78.6619 -111.6467 84.6049 101.7329 5.0537 7.3343 -0.6091 -6.8207 -24.8677 10.7331 -22.7591 -0.0526 78.9819 2.0520 41.2107 3.4616 -5.0494 -1.8833 -0.5980 -13.2730 35.4644 2.7291 
0.0000 93.1000 0.0000 56.2533 46.3291 27.3117 -71.1086 -0.1178 87.9564 135.8059 60.7309 -50.5073 5.5101 20.6176 -2.9740 -161.2626 -7.6797 -172.0692 -143.9086 22.8504 156.5437 1.8170 -4.2975 -29.7342 -86.3979 30.5838 -115.0321 16.1839 10.0277 -55.4663 17.5344 -1.9537 -10.4608 -0.7904 2.2065 26.3048 -65.5743 -60.0668 93.7784 6.7981 -6.5625 36.9696 5.1377 -0.0986 2.1240 -38.2976 -3.8250 81.7873 -19.9458 77.9381 6.8369 3.2872 5.7324 -0.6632 -7.1384 -23.4994 10.0271 -21.0679 -2.5952 78.2194 1.9877 35.9885 7.2145 -4.3610 2.6637 -0.6512 -8.6090 24.8637 -1.2954 
0.0000 93.1000 0.0000 57.6066 43.5008 23.2984 -71.1276 -0.1990 87.9507 134.4564 61.9276 -51.0263 5.3057 22.6545 -5.7568 -160.2038 -9.9067 -168.9438 -144.0386 19.7149 156.6615 2.4766 -3.5266 -29.6781 -85.7252 30.7593 -113.9478 20.0998 8.9397 -64.1348 21.6012 -2.3214 -9.3740 -0.9122 3.1307 24.2766 -61.2489 -59.3566 99.6155 6.3838 -4.9081 35.0563 5.9452 -0.6796 2.0392 -40.7229 -6.8919 84.2254 -11.1653 69.9363 -5.5000 2.8119 2.8260 -0.3967 -5.9465 -19.1328 9.4533 -19.2749 -3.6393 80.2054 1.7393 48.7150 2.3916 -4.3034 3.5532 -0.8219 -0.5934 13.4192 -10.1729 
0.0000 93.1000 0.0000 60.2201 42.6068 19.0442 -71.1159 -0.1600 87.9103 135.6255 62.8090 -53.7650 5.7052 24.2038 -7.1252 -157.3342 -11.9859 -166.1378 -143.2130 16.6055 155.6400 2.5025 -3.1448 -30.7079 -84.0122 33.1857 -110.8648 17.5768 8.6627 -60.3073 21.9961 -1.9325 -8.3147 -0.9402 3.5387 22.0390 -58.0561 -57.8068 106.1833 3.0709 -2.1669 33.3547 6.8961 -0.4844 1.3909 -43.1898 -8.6906 86.4696 -10.0065 67.0560 -10.1525 3.6299 3.3516 -0.7516 -6.1324 -21.4970 7.3691 -18.4168 -4.8511 84.1091 7.6758 71.6920 -5.3862 -5.8357 -1.0015 -0.0164 4.2249 5.1700 -15.1422 
0.0000 93.1000 0.0000 63.9342 40.9597 15.1193 -71.0722 -0.1935 87.8332 138.5789 64.2619 -57.4512 6.0152 25.2224 -7.0716 -155.2894 -14.3528 -166.2184 -144.5270 13.5809 153.8235 2.5015 -2.5264 -32.0724 -82.8708 36.3020 -107.9118 14.0231 11.3504 -48.2836 20.0907 -1.5918 -7.2297 -0.7547 3.3597 20.8723 -62.5579 -58.9859 103.0324 2.6885 -1.1670 34.4997 7.6876 -0.3037 1.2263 -40.7390 -9.0869 87.4532 -9.4908 66.2482 -7.5422 6.3740 1.5115 -1.6279 -8.9380 -33.4706 6.5881 -21.6118 -4.9153 86.1779 121.5550 84.5456 -117.1987 -7.1166 -3.1997 0.7550 4.2604 1.0858 -13.3253 
